<svg width="32" height="32" viewBox="0 0 32 32" fill="none" xmlns="http://www.w3.org/2000/svg">
<g clip-path="url(#clip0_61_907)">
<path d="M2.28563 10.6701H29.7156V30.4801H31.2356V6.1001H29.7156V9.1401H2.28563V6.1001H0.765625V30.4801H2.28563V10.6701Z" fill="#000001"/>
<path d="M29.7153 4.57007H28.1953V6.10007H29.7153V4.57007Z" fill="#000001"/>
<path d="M29.7152 30.48H2.28516V32H29.7152V30.48Z" fill="#000001"/>
<path d="M25.1459 18.29H22.0959V19.81H20.5759V18.29H17.5259V19.81H16.0059V22.86H17.5259V24.38H19.0459V25.9H20.5759V27.43H22.0959V25.9H23.6159V24.38H25.1459V22.86H26.6659V19.81H25.1459V18.29Z" fill="#000001"/>
<path d="M25.1452 13.71H23.6152V15.24H25.1452V13.71Z" fill="#000001"/>
<path d="M19.0454 13.71H17.5254V15.24H19.0454V13.71Z" fill="#000001"/>
<path d="M12.9558 25.8999H11.4258V27.4299H12.9558V25.8999Z" fill="#000001"/>
<path d="M12.9558 19.8101H11.4258V21.3301H12.9558V19.8101Z" fill="#000001"/>
<path d="M12.9558 13.71H11.4258V15.24H12.9558V13.71Z" fill="#000001"/>
<path d="M6.85594 25.8999H5.33594V27.4299H6.85594V25.8999Z" fill="#000001"/>
<path d="M6.85594 19.8101H5.33594V21.3301H6.85594V19.8101Z" fill="#000001"/>
<path d="M6.85594 13.71H5.33594V15.24H6.85594V13.71Z" fill="#000001"/>
<path d="M8.38641 4.57V6.1H9.90641V4.57H22.0964V6.1H23.6164V4.57H28.1964V3.05H23.6164V0H22.0964V3.05H9.90641V0H8.38641V3.05H3.81641V4.57H8.38641Z" fill="#000001"/>
<path d="M3.81516 4.57007H2.28516V6.10007H3.81516V4.57007Z" fill="#000001"/>
</g>
<defs>
<clipPath id="clip0_61_907">
<rect width="32" height="32" fill="white"/>
</clipPath>
</defs>
</svg>
